<svg width="30" height="30" viewBox="0 0 30 30" fill="none" xmlns="http://www.w3.org/2000/svg">
<circle cx="15" cy="15" r="14" stroke="#B5B2B5" stroke-width="2"/>
<path d="M8.5 22.5C6.9 22.9 5.5 23.6667 5 24C5 24.3333 5.1 25.1 5.5 25.5C6 26 7 27 8.5 27.5C10 28 13.5 28.5 15 29C16.5 29.5 21 27.5 21.5 27.5C21.9 27.5 24 25.5 25 24.5L24 23.5C23.5 23.3333 22.3 22.9 21.5 22.5C20.7 22.1 19.1667 22 18.5 22C18.3333 21.6667 18 20.9 18 20.5C18 20 18.5 19 19 18C19.5 17 20.5 16 20.5 15V9C20.5 6 18.5 5 17.5 5C16.5 5 12.5 5 11.5 5.5C10.5 6 9 8 9 9.5C9 11 9.5 15 9.5 16C9.5 17 10.5 17.5 10.5 18C10.5 18.5 11.5 19.5 11.5 20C11.5 20.5 11.5 21.5 11 22C10.5 22.5 10.5 22 8.5 22.5Z" fill="#B5B2B5"/>
</svg>
